<?xml version="1.0" encoding="UTF-8"?>
<svg id="Layer_1" xmlns="http://www.w3.org/2000/svg" xmlns:xlink="http://www.w3.org/1999/xlink" version="1.1" viewBox="0 0 283.5 283.5">
  <!-- Generator: Adobe Illustrator 29.5.1, SVG Export Plug-In . SVG Version: 2.1.0 Build 141)  -->
  <defs>
    <style>
      .st0 {
        fill: none;
      }

      .st1 {
        fill: #005470;
      }

      .st2 {
        fill: #5d899c;
      }

      .st3 {
        fill: #ade1ee;
      }

      .st4 {
        clip-path: url(#clippath-1);
      }

      .st5 {
        clip-path: url(#clippath-2);
      }

      .st6 {
        fill: #fff;
      }

      .st7 {
        fill: #c2d500;
      }

      .st8 {
        clip-path: url(#clippath);
      }
    </style>
    <clipPath id="clippath">
      <rect class="st0" x="13.8" y="9.5" width="292.8" height="244.2"/>
    </clipPath>
    <clipPath id="clippath-1">
      <path class="st0" d="M53.3,158.9c0,44.3,26.5,89,79.4,94.3h22c67.5-6.3,80-68.6,80-92.2,0-40.2-29.6-86.9-90.7-86.9s-90.7,44.7-90.7,84.8h0Z"/>
    </clipPath>
    <clipPath id="clippath-2">
      <rect class="st0" x="-6.4" y="9.5" width="286.1" height="244.2"/>
    </clipPath>
  </defs>
  <g class="st8">
    <g>
      <path class="st1" d="M232.1,161c0,24.1-13.4,89.7-88.1,90.1-58.8.3-88.1-46.1-88.1-92.1s37-82.4,88.1-82.4,88.1,45.3,88.1,84.4"/>
      <path class="st7" d="M97.2,115l4.9-4.3,6.9-2s-3-3,6.6-2.6,13.1,4.4,13.1,4.4l-9.9,11h-8.9l-5.3,5.9s-1-3.9-4.3-8.2l-3.3-4.3h0Z"/>
      <path class="st2" d="M100,90.6c3.4,0,13,2.5,13,2.5,0,0,5.1-6.9,0-6.9s-13,4.4-13,4.4"/>
    </g>
  </g>
  <g class="st4">
    <g>
      <path class="st7" d="M154.1,104.5s-9.3,10.7-11.8,14.4c-2.9,4.2-9.9,17.1-9.9,17.1,0,0-.5,3.3.2,4.1,1,1.2,6.4,2,6.4,2l15.1-10,6.6,6.6,14.4-4.6s3.9,6.1,3.9,7.6-3.9,4.9-3.9,4.9l-25.4-3.1-3.2,4.3-19.9,2.1-7.7,12.3s1.5,11.3,2.3,11.8c.8.5,10.8,5.8,10.8,5.8,0,0,7.6-1,12.3,1.3s8.9,9.2,8.9,9.2c0,0,0,2.5,1.1,9.4s4.6,13.3,4.6,13.3l8.7,10.7s-.5,2.8,5.1,1.6,8.5-9,8.5-9c0,0,8.9-26.1,9.2-26.6s6.7-16.8,6.9-17.2,1.6-5.1-1.3-6.1c-3-1-3-2.3-3-2.3,0,0,4.6-2.6,6.7-6.9,2.1-4.3,6.6-5.3,9.5-3.4,3,1.8,19.4,16.3,19.4,16.3l9.4-8.9-3.9-55.2-18.6-5.6-7.6,1s-5.6-1.8-10.5,0-13.1,4.9-13.1,4.9l-10.4.8s-2.3-2.5-7.6-2.5h-12.5Z"/>
      <path class="st7" d="M49.9,154.4s7.2-1,9.5,0,4.6,3.3,5.6,4.3c1,1,.7-4.6,2.6-6.6,2-2,8.5-3.6,12.2-5.3,3.6-1.6,12.5-13.1,12.5-13.1,0,0-6.6-4.9-10.5-4.6-3.9.3-7.9,4.9-7.9,4.9l-7.2-4.9s-.3-4.6,4.4-4.9c4.8-.3,12.3-4.6,12.3-4.6l-2.3-2.8s-6.6.8-10,0c-3.4-.8-23.5-9.3-23.5-9.3l2.3,47h0Z"/>
      <path class="st7" d="M77.5,172.9c-3.9.7-9.9,1-11.2,3.9-1.3,3-.7,6.9-1.6,10.5-1,3.6,7.9,12.1,7.9,15.1s.7,21,.7,21l4.3,16.1s4.6-8.2,7.6-11.5,7.6-12.5,12.2-15.8c4.6-3.3,4.6-12.8,4.6-12.8,0,0,5.9-.3,4.3-6.9-1.6-6.6-13.8-13.4-13.8-13.4l-10.2-3.1-4.6-3.3h0Z"/>
      <path class="st2" d="M97.2,73.3s19.1,13.8,24.5,15.8,26.6,7.4,34,6.4c7.4-1,22.8.1,22.8.1,0,0-4.6-9.1,2.3-11.5,6.9-2.4,38.4,0,38.4,0l-71-19.2-51.1,8.4h0Z"/>
      <path class="st2" d="M118.9,207.8c-8.1,4.9-12.5,9.4-12.5,9.4v22.3l22.4,16.1s39.3,7.4,40.7,6.4c1.5-1,8.7-6.9,9-8.9.3-2-6.8-6-6.8-6,0,0-7.6-6.2-11.1-12.2-3.5-6-13.3-9.5-13.3-9.5l-18.6-6.9-9.8-10.8h0Z"/>
      <path class="st2" d="M236,176c-4.9,2.3-11.3,7.7-11.3,7.7l-5.4,11.3-3.9,19.2,3.9,7.9,22.4-43.7-5.6-2.5h0Z"/>
    </g>
  </g>
  <g class="st5">
    <g>
      <path class="st3" d="M190.4,134.9h67.5s5.2-3.2,1.4-8.5c-5.4-7.4-13.9.7-13.9.7,0,0,2.2-13.3-10.7-14.7-13.1-1.4-14.7,7.8-14.7,7.8,0,0-8.1-7.7-13-2.7-4.9,4.9-1.2,10.7-1.2,10.7,0,0-5.4-.8-10.4,0-4.9.8-4.9,6.8-4.9,6.8"/>
      <path class="st3" d="M8.3,167.3h93.9s7.5-6.7,1.9-11.9c-3.3-3.1-7.5-3-10.4,0,0-8.5-9.2-6.9-9.2-6.9,0,0,2-15.1-16-17-18.1-1.9-19.1,15.4-19.1,15.4,0,0-11.3-10.6-18.1-3.8-6.9,6.9-1.7,14.8-1.7,14.8,0,0-8.2-7.3-11.3,3.4-3.7-3.5-9.9-3.7-10.7.1-.8,3.3.8,5.9.8,5.9"/>
      <path class="st2" d="M159,18.5c-7.4,2.8-19.2,11.8-19.2,11.8,0,0-8.4-2.2-14.6-1.5-6.2.7-23.3,12.8-23.3,12.8,0,0,4.2,8.2,10.9,9,8.9,1.1,13.1-1.3,16.8-6.7,9.9-14.2,5.4-1,5.4-1,0,0,4,34.9,4.7,35,.6,0,23.5,0,23.5,0,0,0-23.4-2.4-25.8-26.8-1.3-12.7,5.1-17.9,5.1-17.9,0,0,8,8.8,22,11.9,10.9,2.4,20-2.2,22.6-5.4,3.2-4,8.6-10.7-4.7-24.4-5.7-5.9-23.2,3.3-23.2,3.3"/>
      <path class="st6" d="M138.4,30.3c.9,2.7-4.1,7.4-5.9,9.7-3.4,4.5-2.5,10.9-4.3,18.8-2.4,10.2,6.9,22.9,16.5,22.9s2.4-2.7,2.7-3.4c.6-1.8-1.6-3-3.4-6.4-2.6-4.9-5-9.8-5.8-18.7-.4-4.7,10.4-14.4,7.2-17.2-1.6-1.4-3.3-2.7-4.7-4.8-.9-1.5-2.6-2.1-2.2-.9"/>
      <path class="st6" d="M137.4,29.2c1.2.6,3.2,2.7,1.9,3.1-13.4,5.1-22.4,19.4-33.3,14.7-11.7-5-7.3-19.6,8.2-21.6,10.8-1.4,18.9,1.4,23.2,3.7"/>
      <path class="st6" d="M137.8,28.6c-1.2,1.1-.4,3.1,1.2,3.2,19.6,1.5,34.3,14.1,46.9,3.9,13.4-10.9.6-30-20.2-25.5-14.8,3.2-23.3,13.9-27.9,18.4"/>
      <path class="st7" d="M137.2,30.4c-12.4,1.7-20.2,11.6-28.8,6.4-8.5-5.1-3.6-15.6,8.7-14.8,12.2.9,20.1,8.3,20.1,8.3"/>
      <path class="st7" d="M140.3,30.1c17.6-.9,31.1,10.8,41.6,1.5,10.5-9.3.9-22.6-15.9-18.2-16.8,4.4-25.7,16.8-25.7,16.8"/>
      <path class="st1" d="M139.2,29.7s.8,7.1-1.8,13c-3.1,7.3-6,10.5-6,19,0,12.5,11.9,19.3,11.9,19.3,0,0-6.9-7-6.9-19.1s3.9-16.7,4.4-21.5c.5-5.9-1.7-10.7-1.7-10.7"/>
    </g>
  </g>
</svg>